<?xml version="1.0" encoding="UTF-8" standalone="no"?>
<svg
   xmlns:dc="http://purl.org/dc/elements/1.1/"
   xmlns:cc="http://creativecommons.org/ns#"
   xmlns:rdf="http://www.w3.org/1999/02/22-rdf-syntax-ns#"
   xmlns:svg="http://www.w3.org/2000/svg"
   xmlns="http://www.w3.org/2000/svg"
   xmlns:sodipodi="http://sodipodi.sourceforge.net/DTD/sodipodi-0.dtd"
   xmlns:inkscape="http://www.inkscape.org/namespaces/inkscape"
   width="210mm"
   height="297mm"
   viewBox="0 0 210 297"
   version="1.1"
   id="svg8"
   inkscape:version="1.0.1 (3bc2e813f5, 2020-09-07)"
   sodipodi:docname="car_icons.svg">
  <defs
     id="defs2" />
  <sodipodi:namedview
     id="base"
     pagecolor="#ffffff"
     bordercolor="#666666"
     borderopacity="1.0"
     inkscape:pageopacity="0.0"
     inkscape:pageshadow="2"
     inkscape:zoom="11.313708"
     inkscape:cx="307.18837"
     inkscape:cy="619.68402"
     inkscape:document-units="mm"
     inkscape:current-layer="layer1"
     inkscape:document-rotation="0"
     showgrid="false"
     inkscape:window-width="1920"
     inkscape:window-height="1027"
     inkscape:window-x="-8"
     inkscape:window-y="-8"
     inkscape:window-maximized="1" />
  <metadata
     id="metadata5">
    <rdf:RDF>
      <cc:Work
         rdf:about="">
        <dc:format>image/svg+xml</dc:format>
        <dc:type
           rdf:resource="http://purl.org/dc/dcmitype/StillImage" />
        <dc:title />
      </cc:Work>
    </rdf:RDF>
  </metadata>
  <g
     inkscape:label="Layer 1"
     inkscape:groupmode="layer"
     id="layer1">
    <path
       id="rect847"
       style="fill:#508400;fill-opacity:1;stroke:none;stroke-width:0.444634"
       d="m 25.7297,144.52688 c 0.860602,-0.58283 1.416461,-0.76409 2.096284,-0.81884 0.368443,-0.0297 0.736206,-0.0444 1.293295,-0.0151 0.574688,0.0303 1.093301,0.33477 1.696779,0.77344 0.395346,0.28738 0.609465,0.62475 0.950181,0.7076 0.962043,0.23395 1.145636,0.25465 1.566433,0.62799 0.364863,0.32372 0.70239,1.2837 0.70239,1.2837 0,0 -0.0099,0.32425 -0.126264,0.45314 -0.128422,0.14227 -0.518933,0.21911 -0.518933,0.21911 h -7.898951 c 0,0 -0.533763,-0.0331 -0.615355,-0.33423 -0.258832,-0.95543 -0.03562,-1.80475 0.854141,-2.89686 z"
       sodipodi:nodetypes="cssssacsccsc"
       inkscape:export-filename="C:\temp\mml\Mokkimatkalaskuri\static\carA.png"
       inkscape:export-xdpi="96"
       inkscape:export-ydpi="96" />
    <path
       id="rect850"
       style="fill:#ffffff;fill-opacity:1;stroke:none;stroke-width:0.444634"
       d="m 27.793382,144.10492 c 0.432478,-0.02 0.400429,0.0409 0.42333,0.25429 0.053,0.49399 0.06745,0.72138 0.0743,1.14204 -0.50583,0.0299 -0.60085,-0.0135 -1.203745,0.002 -0.343391,0.009 -0.763763,0.0928 -0.831339,-0.1505 -0.06152,-0.22145 0.03518,-0.32154 0.146084,-0.47577 0.110521,-0.1537 0.173211,-0.31544 0.506514,-0.49168 0.194953,-0.10308 0.638748,-0.26897 0.884856,-0.28034 z"
       sodipodi:nodetypes="sscsssss"
       inkscape:export-filename="C:\temp\mml\Mokkimatkalaskuri\static\carA.png"
       inkscape:export-xdpi="96"
       inkscape:export-ydpi="96" />
    <path
       id="rect853"
       style="fill:#ffffff;fill-opacity:1;stroke:none;stroke-width:0.444634"
       d="m 28.677232,144.12719 c 0.903551,-0.25444 2.511005,0.6816 2.451014,1.38149 -0.210307,0.0838 -0.738904,0.0405 -1.188219,0.0304 -0.491851,-0.011 -0.788946,0.0418 -1.091967,-0.0156 -0.01027,-0.002 -0.01547,-0.0142 -0.02308,-0.0217 -0.01184,-0.3333 -0.142544,-0.92558 -0.147744,-1.37463 z"
       sodipodi:nodetypes="cccscc"
       inkscape:export-filename="C:\temp\mml\Mokkimatkalaskuri\static\carA.png"
       inkscape:export-xdpi="96"
       inkscape:export-ydpi="96" />
    <circle
       style="fill:#ffffff;fill-opacity:1;stroke:#508400;stroke-width:0.467397;stroke-opacity:1"
       id="path871"
       cx="26.624624"
       cy="147.5374"
       r="0.844679"
       inkscape:export-filename="C:\temp\mml\Mokkimatkalaskuri\static\carA.png"
       inkscape:export-xdpi="96"
       inkscape:export-ydpi="96" />
    <circle
       style="fill:#ffffff;fill-opacity:1;stroke:#508400;stroke-width:0.467397;stroke-opacity:1"
       id="circle873"
       cx="32.343655"
       cy="147.50769"
       r="0.844679"
       inkscape:export-filename="C:\temp\mml\Mokkimatkalaskuri\static\carA.png"
       inkscape:export-xdpi="96"
       inkscape:export-ydpi="96" />
    <path
       id="path891"
       style="fill:#508400;fill-opacity:1;stroke:none;stroke-width:0.417609"
       d="m 25.655627,152.70537 c 1.079559,-0.51317 4.5473,-0.29533 5.662495,-0.23909 0.539759,0.0285 1.026851,0.31442 1.593651,0.72643 0.371317,0.26991 0.655291,0.75252 0.975299,0.83033 0.903571,0.21973 1.581719,0.34122 1.581719,0.34122 0.33122,0.31455 0.466338,1.28855 0.466338,1.28855 0,0 -0.0093,0.30454 -0.11859,0.4256 -0.120616,0.13362 -0.487393,0.20578 -0.487393,0.20578 h -7.418861 c 0,0 -2.28715,-0.031 -2.363783,-0.31391 -0.420021,-1.5948 -0.05407,-2.24046 0.109125,-3.26491 z"
       sodipodi:nodetypes="ccssscscccc"
       inkscape:export-filename="C:\temp\mml\Mokkimatkalaskuri\static\carB.png"
       inkscape:export-xdpi="96"
       inkscape:export-ydpi="96" />
    <path
       id="path895"
       style="fill:#ffffff;fill-opacity:1;stroke:none;stroke-width:0.417609"
       d="m 30.902942,152.87409 c 0.858499,-0.13045 2.358389,0.64017 2.302044,1.29752 -0.197525,0.0787 -0.693994,0.038 -1.116,0.0286 -0.461957,-0.0104 -0.740995,0.0393 -1.025599,-0.0146 -0.0096,-0.002 -0.01453,-0.0134 -0.02168,-0.0204 -0.01112,-0.31304 -0.13388,-0.86932 -0.138764,-1.29108 z"
       sodipodi:nodetypes="cccsccc"
       inkscape:export-filename="C:\temp\mml\Mokkimatkalaskuri\static\carB.png"
       inkscape:export-xdpi="96"
       inkscape:export-ydpi="96" />
    <circle
       style="fill:#ffffff;fill-opacity:1;stroke:#508400;stroke-width:0.438989;stroke-opacity:1"
       id="circle897"
       cx="28.201641"
       cy="156.07703"
       r="0.79334033"
       inkscape:export-filename="C:\temp\mml\Mokkimatkalaskuri\static\carB.png"
       inkscape:export-xdpi="96"
       inkscape:export-ydpi="96" />
    <circle
       style="fill:#ffffff;fill-opacity:1;stroke:#508400;stroke-width:0.438989;stroke-opacity:1"
       id="circle899"
       cx="34.346527"
       cy="156.04913"
       r="0.79334033"
       inkscape:export-filename="C:\temp\mml\Mokkimatkalaskuri\static\carB.png"
       inkscape:export-xdpi="96"
       inkscape:export-ydpi="96" />
    <path
       id="rect910"
       style="fill:#ffffff;fill-opacity:1;stroke:none;stroke-width:0.417609"
       d="m 28.211263,152.83922 c 0.747354,-0.0949 1.792157,-0.0576 2.552161,0.0384 0.03065,0.37112 0.149253,0.8975 0.114213,1.29204 -0.870029,0.0599 -1.666313,0.11222 -2.701048,0.0188 -0.03403,-0.36307 0.0098,-0.92505 0.03467,-1.34926 z"
       sodipodi:nodetypes="cccccc"
       inkscape:export-filename="C:\temp\mml\Mokkimatkalaskuri\static\carB.png"
       inkscape:export-xdpi="96"
       inkscape:export-ydpi="96" />
    <path
       id="path913"
       style="fill:#ffffff;fill-opacity:1;stroke:none;stroke-width:0.258544"
       d="m 28.017312,152.86423 c -0.325276,-0.23898 -0.903955,0.64017 -0.882358,1.29752 0.07571,0.0787 0.266003,0.038 0.427755,0.0286 0.177066,-0.0104 0.284019,0.0393 0.393105,-0.0146 0.0037,-0.002 0.0056,-0.0134 0.0083,-0.0204 0.0043,-0.31303 0.05132,-0.86932 0.05319,-1.29108 z"
       sodipodi:nodetypes="cccscc"
       inkscape:export-filename="C:\temp\mml\Mokkimatkalaskuri\static\carB.png"
       inkscape:export-xdpi="96"
       inkscape:export-ydpi="96" />
    <path
       id="rect957"
       style="opacity:1;fill:#508400;fill-opacity:1;stroke:none;stroke-width:0.313866"
       d="m 27.666558,159.95441 c 2.621731,-0.0944 2.556853,-0.13709 5.600465,-0.008 0.751557,0.37065 1.536961,1.08769 2.132646,1.66765 1.132757,0.11857 1.00153,0.10711 2.011636,0.24967 0.209998,0.0296 0.351316,0.061 0.733276,0.20145 0.266304,0.25707 0.06768,0.79423 0.214607,1.13397 0.341346,-0.002 0.416011,0.37986 0.404581,0.62931 -0.01407,0.30702 -0.0717,0.67798 -0.320278,0.85185 -8.937064,-0.0114 -7.854399,-0.009 -11.768062,-0.0523 -0.265444,-0.29784 -0.332542,-0.57274 -0.331431,-1.01208 0.0017,-0.6736 0.214579,-1.49212 0.480198,-2.44342 0.167742,-0.60075 0.22974,-0.98628 0.842362,-1.21801 z"
       sodipodi:nodetypes="cccsccsccssc"
       inkscape:export-filename="C:\temp\mml\Mokkimatkalaskuri\static\carC.png"
       inkscape:export-xdpi="96"
       inkscape:export-ydpi="96" />
    <ellipse
       style="fill:#ffffff;fill-opacity:1;stroke:#508400;stroke-width:0.533815;stroke-opacity:1"
       id="path962"
       cx="29.203072"
       cy="164.30614"
       rx="0.85663551"
       ry="0.84707391"
       inkscape:export-filename="C:\temp\mml\Mokkimatkalaskuri\static\carC.png"
       inkscape:export-xdpi="96"
       inkscape:export-ydpi="96" />
    <ellipse
       style="fill:#ffffff;fill-opacity:1;stroke:#508400;stroke-width:0.533815;stroke-opacity:1"
       id="ellipse964"
       cx="36.337643"
       cy="164.30614"
       rx="0.85663551"
       ry="0.84707391"
       inkscape:export-filename="C:\temp\mml\Mokkimatkalaskuri\static\carC.png"
       inkscape:export-xdpi="96"
       inkscape:export-ydpi="96" />
    <path
       id="rect966"
       style="opacity:1;fill:#508400;fill-opacity:1;stroke:none;stroke-width:0.627732"
       d="m 25.571196,160.99898 c 0.06808,-0.10774 0.770371,-0.21323 0.92863,-0.0372 0.07339,0.0816 0.06236,0.45267 0.05674,0.68009 -0.01273,0.51539 0.113074,1.16993 -0.204522,1.53306 -0.432344,-0.008 -0.490782,0.0698 -0.670072,-0.0308 -0.228153,-0.12799 -0.101266,-0.7156 -0.119743,-1.07601 -0.01825,-0.35593 -0.05351,-0.97028 0.009,-1.06914 z"
       sodipodi:nodetypes="ssacsas"
       inkscape:export-filename="C:\temp\mml\Mokkimatkalaskuri\static\carC.png"
       inkscape:export-xdpi="96"
       inkscape:export-ydpi="96" />
    <path
       id="rect1001"
       style="opacity:1;fill:#508400;fill-opacity:1;stroke:none;stroke-width:0.627732"
       d="m 28.166549,158.88309 c 0.199149,-0.0711 3.18939,-0.49596 4.455438,0.28627 0.144583,0.0893 0.256904,0.4404 0.256904,0.4404 0,0 -4.121979,0.0526 -4.895844,0 -0.281328,-0.0191 -0.02737,-0.53307 0.183502,-0.72667 z"
       sodipodi:nodetypes="cacsc"
       inkscape:export-filename="C:\temp\mml\Mokkimatkalaskuri\static\carC.png"
       inkscape:export-xdpi="96"
       inkscape:export-ydpi="96" />
    <path
       id="rect1004"
       style="opacity:1;fill:#ffffff;fill-opacity:1;stroke:none;stroke-width:0.627732"
       d="m 31.523105,160.22661 c 0.860137,0.0189 1.448319,-0.0772 1.868483,0.14533 0.428871,0.22714 1.085732,0.98164 1.318319,1.65049 -0.714765,0.049 -1.999266,0.0433 -2.906529,-0.0104 -0.165064,-0.55595 -0.149522,-1.12516 -0.280273,-1.78543 z"
       sodipodi:nodetypes="csccc"
       inkscape:export-filename="C:\temp\mml\Mokkimatkalaskuri\static\carC.png"
       inkscape:export-xdpi="96"
       inkscape:export-ydpi="96" />
    <path
       id="rect1007"
       style="opacity:1;fill:#ffffff;fill-opacity:1;stroke:none;stroke-width:0.627732"
       d="m 29.561198,160.2318 c 0.90466,-0.0132 0.825953,0.004 1.640113,0.0104 0.05964,0.84227 0.08727,0.96538 0.192039,1.8062 -0.866863,-0.0328 -1.097826,-0.035 -1.935957,-0.0363 0.05291,-0.90331 0.02307,-0.80279 0.103805,-1.78025 z"
       sodipodi:nodetypes="ccccc"
       inkscape:export-filename="C:\temp\mml\Mokkimatkalaskuri\static\carC.png"
       inkscape:export-xdpi="96"
       inkscape:export-ydpi="96" />
    <path
       id="rect1010"
       style="opacity:1;fill:#ffffff;fill-opacity:1;stroke:none;stroke-width:0.627732"
       d="m 27.708661,160.41348 c 0.306407,-0.21991 0.274261,-0.19684 1.453402,-0.16446 -0.06469,0.89901 -0.05544,1.21864 -0.107952,1.75969 -0.634853,0.0619 -1.325719,0.0557 -1.782581,0.006 -0.03036,-0.42881 0.167239,-1.15751 0.437131,-1.60142 z"
       sodipodi:nodetypes="cccccc"
       inkscape:export-filename="C:\temp\mml\Mokkimatkalaskuri\static\carC.png"
       inkscape:export-xdpi="96"
       inkscape:export-ydpi="96" />
    <path
       id="path881"
       style="opacity:1;fill:#508400;fill-opacity:1;stroke:none;stroke-width:0.0999957"
       d="m 76.95289,161.31731 c 0.670163,-0.0374 0.653579,-0.0544 1.431581,-0.003 0.192111,0.14718 0.392874,0.4319 0.545142,0.6622 0.289554,0.0471 0.25601,0.0425 0.514211,0.0991 0.05368,0.0118 0.0898,0.0243 0.187438,0.08 0.06807,0.10208 0.0173,0.31537 0.05485,0.45028 0.08725,-6.2e-4 0.106341,0.15084 0.103419,0.24989 -0.0036,0.12191 -0.01833,0.26922 -0.08187,0.33826 -2.284475,-0.004 -2.007727,-0.004 -3.008129,-0.0207 -0.06785,-0.11827 -0.085,-0.22743 -0.08472,-0.40189 4.35e-4,-0.26747 0.05485,-0.5925 0.122747,-0.97024 0.04288,-0.23855 0.05872,-0.39164 0.215323,-0.48365 z"
       sodipodi:nodetypes="cccsccsccssc"
       inkscape:export-filename="C:\temp\mml\Mokkimatkalaskuri\static\favicon.png"
       inkscape:export-xdpi="96"
       inkscape:export-ydpi="96" />
    <ellipse
       style="fill:#ffffff;fill-opacity:1;stroke:#508400;stroke-width:0.17007;stroke-opacity:1"
       id="ellipse883"
       cx="77.34565"
       cy="163.04532"
       rx="0.21897152"
       ry="0.33636004"
       inkscape:export-filename="C:\temp\mml\Mokkimatkalaskuri\static\favicon.png"
       inkscape:export-xdpi="96"
       inkscape:export-ydpi="96" />
    <ellipse
       style="fill:#ffffff;fill-opacity:1;stroke:#508400;stroke-width:0.17007;stroke-opacity:1"
       id="ellipse885"
       cx="79.169373"
       cy="163.04532"
       rx="0.21897152"
       ry="0.33636004"
       inkscape:export-filename="C:\temp\mml\Mokkimatkalaskuri\static\favicon.png"
       inkscape:export-xdpi="96"
       inkscape:export-ydpi="96" />
    <path
       id="path887"
       style="opacity:1;fill:#508400;fill-opacity:1;stroke:none;stroke-width:0.199991"
       d="m 78.316479,162.1658 c 0.0174,-0.0428 0.19692,-0.0847 0.237374,-0.0148 0.01876,0.0324 0.01594,0.17975 0.0145,0.27006 -0.0032,0.20465 0.0289,0.46456 -0.05228,0.60875 -0.110514,-0.003 -0.125453,0.0277 -0.171282,-0.0122 -0.05832,-0.0508 -0.02588,-0.28416 -0.03061,-0.42726 -0.0046,-0.14134 -0.01368,-0.38529 0.0023,-0.42454 z"
       sodipodi:nodetypes="ssacsas"
       inkscape:export-filename="C:\temp\mml\Mokkimatkalaskuri\static\favicon.png"
       inkscape:export-xdpi="96"
       inkscape:export-ydpi="96" />
    <path
       id="path889"
       style="opacity:1;fill:#508400;fill-opacity:1;stroke:none;stroke-width:0.199991"
       d="m 77.080697,160.89191 c 0.05091,-0.0282 0.815266,-0.19694 1.138891,0.11367 0.03696,0.0354 0.06567,0.17488 0.06567,0.17488 0,0 -1.053653,0.0209 -1.251467,0 -0.07191,-0.008 -0.007,-0.21168 0.04691,-0.28855 z"
       sodipodi:nodetypes="cacsc"
       inkscape:export-filename="C:\temp\mml\Mokkimatkalaskuri\static\favicon.png"
       inkscape:export-xdpi="96"
       inkscape:export-ydpi="96" />
    <path
       id="path892"
       style="opacity:1;fill:#ffffff;fill-opacity:1;stroke:none;stroke-width:0.199991"
       d="m 77.938694,161.4254 c 0.219866,0.008 0.370216,-0.0307 0.477618,0.0577 0.109627,0.0902 0.277532,0.38979 0.336985,0.65538 -0.182706,0.0194 -0.511048,0.0172 -0.742961,-0.004 -0.04219,-0.22076 -0.03822,-0.44678 -0.07164,-0.70897 z"
       sodipodi:nodetypes="csccc"
       inkscape:export-filename="C:\temp\mml\Mokkimatkalaskuri\static\favicon.png"
       inkscape:export-xdpi="96"
       inkscape:export-ydpi="96" />
    <path
       id="path894"
       style="opacity:1;fill:#ffffff;fill-opacity:1;stroke:none;stroke-width:0.199991"
       d="m 77.437194,161.42746 c 0.231248,-0.005 0.211129,0.001 0.419243,0.004 0.01525,0.33445 0.02231,0.38334 0.04909,0.71721 -0.221586,-0.013 -0.280624,-0.0139 -0.494865,-0.0144 0.01352,-0.35869 0.0059,-0.31877 0.02654,-0.70691 z"
       sodipodi:nodetypes="ccccc"
       inkscape:export-filename="C:\temp\mml\Mokkimatkalaskuri\static\favicon.png"
       inkscape:export-xdpi="96"
       inkscape:export-ydpi="96" />
    <path
       id="path896"
       style="opacity:1;fill:#ffffff;fill-opacity:1;stroke:none;stroke-width:0.199991"
       d="m 76.963653,161.4996 c 0.07832,-0.0873 0.0701,-0.0782 0.371516,-0.0653 -0.01654,0.35698 -0.01417,0.4839 -0.02759,0.69875 -0.162279,0.0246 -0.338877,0.022 -0.45566,0.002 -0.0078,-0.17027 0.04275,-0.45963 0.111739,-0.6359 z"
       sodipodi:nodetypes="cccccc"
       inkscape:export-filename="C:\temp\mml\Mokkimatkalaskuri\static\favicon.png"
       inkscape:export-xdpi="96"
       inkscape:export-ydpi="96" />
    <rect
       style="fill:none;stroke:#000000;stroke-width:0.0718775"
       id="rect907"
       width="4.1614561"
       height="4.1614556"
       x="76.037483"
       y="160.06366"
       inkscape:export-filename="C:\temp\mml\Mokkimatkalaskuri\static\favicon.png"
       inkscape:export-xdpi="96"
       inkscape:export-ydpi="96" />
  </g>
</svg>
